<svg width="20" height="20" viewBox="0 0 20 20" fill="none" xmlns="http://www.w3.org/2000/svg">
<path d="M19 9.43846L10.8446 17.4644C9.8455 18.4477 8.49043 19.0001 7.07749 19.0001C5.66455 19.0001 4.30948 18.4477 3.31039 17.4644C2.31129 16.4812 1.75 15.1476 1.75 13.7571C1.75 12.3666 2.31129 11.033 3.31039 10.0498L11.4658 2.02381C12.1319 1.36831 13.0352 1.00006 13.9772 1.00006C14.9192 1.00006 15.8225 1.36831 16.4886 2.02381C17.1547 2.67931 17.5289 3.56835 17.5289 4.49536C17.5289 5.42237 17.1547 6.31141 16.4886 6.96691L8.32432 14.9929C7.99129 15.3206 7.5396 15.5048 7.06862 15.5048C6.59764 15.5048 6.14595 15.3206 5.81291 14.9929C5.47988 14.6651 5.29279 14.2206 5.29279 13.7571C5.29279 13.2936 5.47988 12.8491 5.81291 12.5213L13.3471 5.11543" stroke="black" stroke-width="2" stroke-linecap="round" stroke-linejoin="round"/>
</svg>
