<svg width="23" height="17" viewBox="0 0 23 17" fill="none" xmlns="http://www.w3.org/2000/svg">
<g clip-path="url(#clip0_1_99)">
<path d="M10.8281 3.61491H4.27502C3.77845 3.61491 3.30222 3.75539 2.9511 4.00544C2.59997 4.25549 2.40271 4.59463 2.40271 4.94825V14.2816C2.40271 14.6352 2.59997 14.9743 2.9511 15.2244C3.30222 15.4744 3.77845 15.6149 4.27502 15.6149H17.3812C17.8777 15.6149 18.354 15.4744 18.7051 15.2244C19.0562 14.9743 19.2535 14.6352 19.2535 14.2816V9.61491" stroke="#181818" stroke-linecap="round" stroke-linejoin="round"/>
<path d="M17.8493 2.61484C18.2217 2.34962 18.7268 2.20062 19.2535 2.20062C19.7802 2.20062 20.2853 2.34962 20.6577 2.61484C21.0302 2.88005 21.2394 3.23976 21.2394 3.61484C21.2394 3.98991 21.0302 4.34962 20.6577 4.61484L11.7643 10.9482L8.01965 11.6148L8.95581 8.94817L17.8493 2.61484Z" stroke="#181818" stroke-linecap="round" stroke-linejoin="round"/>
</g>
<defs>
<clipPath id="clip0_1_99">
<rect width="22.4677" height="16" fill="white" transform="translate(0.530396 0.948242)"/>
</clipPath>
</defs>
</svg>
