<svg width="34" height="24" viewBox="0 0 34 24" fill="none" xmlns="http://www.w3.org/2000/svg">
    <path d="M17.1701 13C17.929 13 18.5441 12.5523 18.5441 12C18.5441 11.4477 17.929 11 17.1701 11C16.4113 11 15.7961 11.4477 15.7961 12C15.7961 12.5523 16.4113 13 17.1701 13Z" stroke="#181818" stroke-width="2" stroke-linecap="round" stroke-linejoin="round" />
    <path d="M26.7881 13C27.5469 13 28.162 12.5523 28.162 12C28.162 11.4477 27.5469 11 26.7881 11C26.0292 11 25.4141 11.4477 25.4141 12C25.4141 12.5523 26.0292 13 26.7881 13Z" stroke="#181818" stroke-width="2" stroke-linecap="round" stroke-linejoin="round" />
    <path d="M7.55222 13C8.31105 13 8.92621 12.5523 8.92621 12C8.92621 11.4477 8.31105 11 7.55222 11C6.79338 11 6.17822 11.4477 6.17822 12C6.17822 12.5523 6.79338 13 7.55222 13Z" stroke="#181818" stroke-width="2" stroke-linecap="round" stroke-linejoin="round" />
</svg>
    