<svg width="16" height="16" viewBox="0 0 16 16" fill="none" xmlns="http://www.w3.org/2000/svg">
<path d="M8.00016 14.6666C11.6821 14.6666 14.6668 11.6819 14.6668 7.99998C14.6668 4.31808 11.6821 1.33331 8.00016 1.33331C4.31826 1.33331 1.3335 4.31808 1.3335 7.99998C1.3335 11.6819 4.31826 14.6666 8.00016 14.6666Z" stroke="white" stroke-linecap="round" stroke-linejoin="round"/>
<path d="M6.06006 5.99995C6.21679 5.5544 6.52616 5.17869 6.93336 4.93937C7.34056 4.70006 7.81932 4.61258 8.28484 4.69243C8.75036 4.77228 9.1726 5.0143 9.47678 5.37564C9.78095 5.73697 9.94743 6.1943 9.94672 6.66662C9.94672 7.99995 7.94672 8.66662 7.94672 8.66662" stroke="white" stroke-linecap="round" stroke-linejoin="round"/>
<path d="M8 11.3333H8.00667" stroke="white" stroke-linecap="round" stroke-linejoin="round"/>
</svg>
